<svg xmlns="http://www.w3.org/2000/svg" viewBox="0 0 512 512" width="512" height="512">
  <path d="M 256,20 C 386,20 492,126 492,256 C 492,386 386,492 256,492 C 126,492 20,386 20,256 C 20,126 126,20 256,20 Z" fill="#140F14"/>
  <path d="M 180,152 L 340,152 L 340,176 L 180,176 Z
           M 290,152 L 316,152 L 316,356 L 290,356 Z
           M 216,252 L 292,252 L 292,274 L 216,274 Z" fill="#F6ECD9"/>
  <path d="M 188,186 C 246,182 258,232 216,254 C 252,246 238,198 188,186 Z" fill="#F6ECD9"/>
  <path d="M 216,254 C 272,280 262,352 188,354 C 166,354 154,342 154,330 C 154,316 166,310 176,318 C 184,324 192,328 202,328 C 230,326 238,284 198,266 Z" fill="#F6ECD9"/>
</svg>